HIERARCHY
ROOT hip
{
  OFFSET 0 0 0
  CHANNELS 6 Xposition Yposition Zposition Zrotation Yrotation Xrotation
  JOINT abdomen
  {
    OFFSET 0 20.6881 -0.73152
    CHANNELS 3 Zrotation Xrotation Yrotation
    JOINT chest
    {
      OFFSET 0 11.7043 -0.48768
      CHANNELS 3 Zrotation Xrotation Yrotation
      JOINT neck
      {
        OFFSET 0 22.1894 -2.19456
        CHANNELS 3 Zrotation Xrotation Yrotation
        JOINT head
        {
          OFFSET -0.24384 7.07133 1.2192
          CHANNELS 3 Zrotation Xrotation Yrotation
          JOINT leftEye
          {
            OFFSET 4.14528 8.04674 8.04672
            CHANNELS 3 Zrotation Xrotation Yrotation
            End Site
            {
              OFFSET 1 0 0
            }
          }
          JOINT rightEye
          {
            OFFSET -3.6576 8.04674 8.04672
            CHANNELS 3 Zrotation Xrotation Yrotation
            End Site
            {
              OFFSET 1 0 0
            }
          }
        }
      }
      JOINT rCollar
      {
        OFFSET -2.68224 19.2634 -4.8768
        CHANNELS 3 Zrotation Xrotation Yrotation
        JOINT rShldr
        {
          OFFSET -8.77824 -1.95073 1.46304
          CHANNELS 3 Zrotation Xrotation Yrotation
          JOINT rForeArm
          {
            OFFSET -28.1742 -1.7115 0.48768
            CHANNELS 3 Zrotation Xrotation Yrotation
            JOINT rHand
            {
              OFFSET -22.5879 0.773209 7.07136
              CHANNELS 3 Zrotation Xrotation Yrotation
              JOINT rThumb1
              {
                OFFSET -1.2192 -0.487915 3.41376
                CHANNELS 3 Zrotation Xrotation Yrotation
                JOINT rThumb2
                {
                  OFFSET -3.37035 -0.52449 3.41376
                  CHANNELS 3 Zrotation Xrotation Yrotation
                  End Site
                  {
                    OFFSET -1.78271 -1.18214 1.43049
                  }
                }
              }
              JOINT rIndex1
              {
                OFFSET -7.75947 0.938293 5.60832
                CHANNELS 3 Zrotation Xrotation Yrotation
                JOINT rIndex2
                {
                  OFFSET -2.54057 -0.884171 1.56538
                  CHANNELS 3 Zrotation Xrotation Yrotation
                  End Site
                  {
                    OFFSET -1.62519 -0.234802 1.16502
                  }
                }
              }
              JOINT rMid1
              {
                OFFSET -8.24714 1.18213 3.41376
                CHANNELS 3 Zrotation Xrotation Yrotation
                JOINT rMid2
                {
                  OFFSET -3.10165 -0.590103 1.0647
                  CHANNELS 3 Zrotation Xrotation Yrotation
                  End Site
                  {
                    OFFSET -2.48547 -0.328903 0.83742
                  }
                }
              }
              JOINT rRing1
              {
                OFFSET -8.82822 0.546677 1.51678
                CHANNELS 3 Zrotation Xrotation Yrotation
                JOINT rRing2
                {
                  OFFSET -2.60934 -0.819778 -0.0198488
                  CHANNELS 3 Zrotation Xrotation Yrotation
                  End Site
                  {
                    OFFSET -2.33842 -0.294052 0.168128
                  }
                }
              }
              JOINT rPinky1
              {
                OFFSET -8.27202 -0.0477905 -0.4584
                CHANNELS 3 Zrotation Xrotation Yrotation
                JOINT rPinky2
                {
                  OFFSET -1.82734 -0.647385 -0.700984
                  CHANNELS 3 Zrotation Xrotation Yrotation
                  End Site
                  {
                    OFFSET -1.69225 -0.51767 -0.607171
                  }
                }
              }
            }
          }
        }
      }
      JOINT lCollar
      {
        OFFSET 2.68224 19.2634 -4.8768
        CHANNELS 3 Zrotation Xrotation Yrotation
        JOINT lShldr
        {
          OFFSET 8.77824 -1.95073 1.46304
          CHANNELS 3 Zrotation Xrotation Yrotation
          JOINT lForeArm
          {
            OFFSET 28.1742 -1.7115 0.48768
            CHANNELS 3 Zrotation Xrotation Yrotation
            JOINT lHand
            {
              OFFSET 22.5879 0.773209 7.07136
              CHANNELS 3 Zrotation Xrotation Yrotation
              JOINT lThumb1
              {
                OFFSET 1.2192 -0.487915 3.41376
                CHANNELS 3 Zrotation Xrotation Yrotation
                JOINT lThumb2
                {
                  OFFSET 3.37035 -0.52449 3.41376
                  CHANNELS 3 Zrotation Xrotation Yrotation
                  End Site
                  {
                    OFFSET 1.78271 -1.18214 1.43049
                  }
                }
              }
              JOINT lIndex1
              {
                OFFSET 7.75947 0.938293 5.60832
                CHANNELS 3 Zrotation Xrotation Yrotation
                JOINT lIndex2
                {
                  OFFSET 2.54057 -0.884171 1.56538
                  CHANNELS 3 Zrotation Xrotation Yrotation
                  End Site
                  {
                    OFFSET 1.62519 -0.234802 1.16502
                  }
                }
              }
              JOINT lMid1
              {
                OFFSET 8.24714 1.18213 3.41376
                CHANNELS 3 Zrotation Xrotation Yrotation
                JOINT lMid2
                {
                  OFFSET 3.10165 -0.590103 1.0647
                  CHANNELS 3 Zrotation Xrotation Yrotation
                  End Site
                  {
                    OFFSET 2.48547 -0.328903 0.83742
                  }
                }
              }
              JOINT lRing1
              {
                OFFSET 8.82822 0.546677 1.51678
                CHANNELS 3 Zrotation Xrotation Yrotation
                JOINT lRing2
                {
                  OFFSET 2.60934 -0.819778 -0.0198488
                  CHANNELS 3 Zrotation Xrotation Yrotation
                  End Site
                  {
                    OFFSET 2.33842 -0.294052 0.168128
                  }
                }
              }
              JOINT lPinky1
              {
                OFFSET 8.27202 -0.0477905 -0.4584
                CHANNELS 3 Zrotation Xrotation Yrotation
                JOINT lPinky2
                {
                  OFFSET 1.82734 -0.647385 -0.700984
                  CHANNELS 3 Zrotation Xrotation Yrotation
                  End Site
                  {
                    OFFSET 1.69225 -0.51767 -0.607171
                  }
                }
              }
            }
          }
        }
      }
    }
  }
  JOINT rButtock
  {
    OFFSET -8.77824 4.35084 1.2192
    CHANNELS 3 Zrotation Xrotation Yrotation
    JOINT rThigh
    {
      OFFSET 0 -1.70687 -2.19456
      CHANNELS 3 Zrotation Xrotation Yrotation
      JOINT rShin
      {
        OFFSET 0 -36.8199 0.73152
        CHANNELS 3 Zrotation Xrotation Yrotation
        JOINT rFoot
        {
          OFFSET 0.73152 -45.1104 -5.12064
          CHANNELS 3 Zrotation Xrotation Yrotation
          End Site
          {
            OFFSET -1.1221 -3.69964 12.103
          }
        }
      }
    }
  }
  JOINT lButtock
  {
    OFFSET 8.77824 4.35084 1.2192
    CHANNELS 3 Zrotation Xrotation Yrotation
    JOINT lThigh
    {
      OFFSET 0 -1.70687 -2.19456
      CHANNELS 3 Zrotation Xrotation Yrotation
      JOINT lShin
      {
        OFFSET 0 -36.8199 0.73152
        CHANNELS 3 Zrotation Xrotation Yrotation
        JOINT lFoot
        {
          OFFSET -0.73152 -45.1104 -5.12064
          CHANNELS 3 Zrotation Xrotation Yrotation
          End Site
          {
            OFFSET 1.1221 -3.69964 12.103
          }
        }
      }
    }
  }
}
MOTION
Frames:	8
Frame Time:	0.00833333
26.871 83.4631 45.5452 -4.9589 -2.5351 -2.2482 2.5627 10.5371 5.41159 -1.53766 -4.09911 1.40546 -1.83275 -1.87238 -3.73574 2.41278 -9.22728 -6.66838 -0.0 0.0 0.0 -0.0 0.0 0.0 2.73955e-14 2.2439e-14 1.5808e-14 76.6496 14.8436 10.9961 -15.3574 -8.1034 28.328 -0.00698809 -2.36346 -0.332358 -5.02315e-10 -5.71334e-11 2.28859e-10 -8.68251e-10 -1.01965e-10 3.9642e-10 -5.02313e-10 -5.71359e-11 2.28858e-10 7.73091 5.47488 0.417314 -5.02315e-10 -5.71332e-11 2.28859e-10 2.90554 0.965183 0.102902 -5.02312e-10 -5.71332e-11 2.28862e-10 10.2786 0.731801 0.0259123 -5.02319e-10 -5.71298e-11 2.28869e-10 2.22167 -0.733487 -0.20892 2.72247e-14 2.24352e-14 1.54939e-14 -82.4175 21.3262 5.91296 12.1241 -5.53658 -21.8493 0.000799741 -0.673492 0.0946636 -1.46254e-10 -4.6075e-10 -5.03275e-10 -2.51868e-10 -7.972e-10 -8.70831e-10 -1.4627e-10 -4.60754e-10 -5.03275e-10 -7.73091 5.47488 -0.417314 -1.46265e-10 -4.60757e-10 -5.03284e-10 -2.90554 0.965183 -0.102902 -1.46265e-10 -4.60751e-10 -5.03278e-10 -10.2786 0.731801 -0.0259123 -1.46252e-10 -4.6075e-10 -5.03282e-10 -2.22167 -0.733487 0.20892 -2.03217e-16 0.0 -3.88251e-19 9.36067 7.63051 7.20304 -0.250861 31.8805 0.33408 -1.1777 -7.16799 -3.89629 2.03217e-16 0.0 3.88251e-19 1.6298 -30.6354 -4.63744 0.15232 26.7485 0.252035 0.404224 3.21121 -2.9866
27.1047 83.4298 46.6641 -4.7647 -2.0689 -2.253 2.04087 10.5628 5.31886 -1.4083 -4.14996 1.36009 -1.85242 -1.70447 -3.78748 2.41408 -9.15923 -6.76953 -0.0 0.0 0.0 -0.0 0.0 0.0 4.21306e-14 3.26019e-14 1.28713e-14 77.0203 14.5262 10.4141 -15.3544 -8.10093 28.3211 -0.00643192 -2.28929 -0.321912 -7.60496e-10 3.25391e-10 1.2386e-10 -1.31415e-09 5.58954e-10 2.1479e-10 -7.60493e-10 3.25389e-10 1.2386e-10 7.73091 5.47488 0.417314 -7.60494e-10 3.2539e-10 1.2386e-10 2.90554 0.965183 0.102902 -7.60492e-10 3.25391e-10 1.23864e-10 10.2786 0.731801 0.0259123 -7.60497e-10 3.25393e-10 1.2387e-10 2.22167 -0.733487 -0.20892 4.19581e-14 3.2598e-14 1.25731e-14 -82.4196 21.0502 5.88192 11.9974 -5.44684 -21.6049 0.000926603 -0.869158 0.122162 -5.76869e-10 -6.03299e-10 -6.61714e-10 -9.96698e-10 -1.04361e-09 -1.14498e-09 -5.76887e-10 -6.03305e-10 -6.61714e-10 -7.73091 5.47488 -0.417314 -5.76882e-10 -6.03307e-10 -6.61724e-10 -2.90554 0.965183 -0.102902 -5.7688e-10 -6.033e-10 -6.61717e-10 -10.2786 0.731801 -0.0259123 -5.76866e-10 -6.03298e-10 -6.61721e-10 -2.22167 -0.733487 0.20892 -2.03217e-16 0.0 -3.88251e-19 8.8782 7.02305 6.65941 -0.278814 33.7586 0.3552 -0.907392 -4.93184 -3.24573 2.03217e-16 0.0 3.88251e-19 0.985535 -30.2589 -4.66107 0.161609 27.3118 0.260545 0.403912 3.3502 -3.75369
27.3086 83.2959 47.7675 -4.4523 -1.8214 -2.3082 1.70541 10.4879 5.3384 -1.36474 -4.16506 1.34734 -1.8473 -1.55227 -3.81486 2.40019 -9.04989 -6.83151 -0.0 0.0 0.0 -0.0 0.0 0.0 7.09239e-14 1.54103e-14 1.74655e-14 77.4077 14.2109 9.79919 -15.2908 -8.04504 28.1883 -0.00511251 -2.0767 -0.291984 -1.10896e-09 7.84197e-10 -4.72227e-11 -1.9162e-09 1.35185e-09 -8.12898e-11 -1.10895e-09 7.84195e-10 -4.72244e-11 7.73091 5.47488 0.417314 -1.10895e-09 7.84196e-10 -4.72231e-11 2.90554 0.965183 0.102902 -1.10895e-09 7.84197e-10 -4.722e-11 10.2786 0.731801 0.0259123 -1.10896e-09 7.84198e-10 -4.72145e-11 2.22167 -0.733487 -0.20892 7.0763e-14 1.54063e-14 1.71786e-14 -82.3651 20.8821 5.83376 11.8792 -5.3642 -21.3765 0.00137162 -1.24117 0.174448 -1.05786e-09 -9.11193e-10 -7.16224e-10 -1.82818e-09 -1.57643e-09 -1.2391e-09 -1.05788e-09 -9.11199e-10 -7.16221e-10 -7.73091 5.47488 -0.417314 -1.05787e-09 -9.112e-10 -7.16232e-10 -2.90554 0.965183 -0.102902 -1.05787e-09 -9.11194e-10 -7.16225e-10 -10.2786 0.731801 -0.0259123 -1.05786e-09 -9.11192e-10 -7.16229e-10 -2.22167 -0.733487 0.20892 -2.03217e-16 0.0 -3.88251e-19 8.48777 6.1519 6.17679 -0.31228 35.7713 0.382747 -0.653361 -2.11202 -2.56557 2.03217e-16 0.0 3.88251e-19 0.599673 -30.0425 -4.30373 0.177289 28.2942 0.260433 0.36136 2.96545 -4.0549
27.4962 83.355 48.9225 -4.0844 -1.8122 -2.3005 1.47328 10.348 5.42623 -1.37235 -4.15858 1.35385 -1.8251 -1.40034 -3.8268 2.37405 -8.91072 -6.86961 -0.0 0.0 0.0 -0.0 0.0 0.0 1.10392e-13 -1.85102e-14 2.8802e-14 77.8165 13.8869 9.14515 -15.1825 -7.9498 27.9639 -0.00363086 -1.77531 -0.249576 -1.54889e-09 1.37518e-09 -2.70236e-10 -2.67645e-09 2.37344e-09 -4.67264e-10 -1.54889e-09 1.37518e-09 -2.70242e-10 7.73091 5.47488 0.417314 -1.54889e-09 1.37518e-09 -2.70238e-10 2.90554 0.965183 0.102902 -1.54889e-09 1.37518e-09 -2.70235e-10 10.2786 0.731801 0.0259123 -1.54889e-09 1.37518e-09 -2.7023e-10 2.22167 -0.733487 -0.20892 1.10253e-13 -1.85142e-14 2.85256e-14 -82.2703 20.7884 5.77155 11.7594 -5.28126 -21.1454 0.00302039 -1.75495 0.246697 -1.6104e-09 -1.33741e-09 -6.92173e-10 -2.78309e-09 -2.31419e-09 -1.19716e-09 -1.61041e-09 -1.33742e-09 -6.92165e-10 -7.73091 5.47488 -0.417314 -1.61041e-09 -1.33742e-09 -6.92179e-10 -2.90554 0.965183 -0.102902 -1.61041e-09 -1.33742e-09 -6.92174e-10 -10.2786 0.731801 -0.0259123 -1.6104e-09 -1.33741e-09 -6.92177e-10 -2.22167 -0.733487 0.20892 -2.03217e-16 0.0 -3.88251e-19 8.1322 5.05828 5.71186 -0.351974 37.9267 0.415439 -0.443918 1.19002 -1.84498 2.03217e-16 0.0 3.88251e-19 0.369528 -29.9021 -3.70811 0.197177 29.524 0.255878 0.283795 2.16798 -4.02812
27.6406 83.3338 50.0863 -4.0378 -1.7897 -2.4399 1.23588 10.2026 5.52319 -1.39264 -4.14699 1.36124 -1.79629 -1.28277 -3.82324 2.34251 -8.72786 -6.87914 -0.0 0.0 0.0 -0.0 0.0 0.0 1.4298e-13 -5.01322e-14 4.17025e-14 78.2161 13.5582 8.51208 -15.0547 -7.83799 27.7008 -0.00242927 -1.4449 -0.203106 -1.91825e-09 1.95601e-09 -4.74928e-10 -3.31484e-09 3.37791e-09 -8.21478e-10 -1.91825e-09 1.95601e-09 -4.74937e-10 7.73091 5.47488 0.417314 -1.91825e-09 1.95601e-09 -4.7493e-10 2.90554 0.965183 0.102902 -1.91824e-09 1.95601e-09 -4.74927e-10 10.2786 0.731801 0.0259123 -1.91825e-09 1.95601e-09 -4.74924e-10 2.22167 -0.733487 -0.20892 1.42864e-13 -5.01363e-14 4.14381e-14 -82.1668 20.7141 5.717 11.6707 -5.22026 -20.9746 0.00564738 -2.22336 0.312617 -2.06276e-09 -1.70108e-09 -5.84329e-10 -3.56484e-09 -2.94379e-09 -1.01027e-09 -2.06276e-09 -1.70109e-09 -5.84316e-10 -7.73091 5.47488 -0.417314 -2.06276e-09 -1.70109e-09 -5.84331e-10 -2.90554 0.965183 -0.102902 -2.06276e-09 -1.70108e-09 -5.84328e-10 -10.2786 0.731801 -0.0259123 -2.06276e-09 -1.70108e-09 -5.84331e-10 -2.22167 -0.733487 0.20892 -2.03217e-16 0.0 -3.88251e-19 7.74272 3.82731 5.27125 -0.397727 40.1539 0.453272 -0.311161 4.61969 -1.16584 2.03217e-16 0.0 3.88251e-19 0.150192 -29.7368 -3.06765 0.217246 30.752 0.252813 0.200976 1.20963 -3.87107
27.7878 83.3271 51.2205 -4.0784 -1.7852 -2.5962 0.883764 10.1114 5.57022 -1.38709 -4.14676 1.35113 -1.77132 -1.23368 -3.80408 2.31224 -8.48737 -6.85549 -0.0 0.0 0.0 -0.0 0.0 0.0 1.51131e-13 -6.04284e-14 5.09883e-14 78.5776 13.2297 7.95963 -14.9335 -7.73288 27.452 -0.00160886 -1.14524 -0.160975 -2.05496e-09 2.38436e-09 -5.91046e-10 -3.55132e-09 4.11945e-09 -1.02228e-09 -2.05496e-09 2.38437e-09 -5.91058e-10 7.73091 5.47488 0.417314 -2.05496e-09 2.38436e-09 -5.91049e-10 2.90554 0.965183 0.102902 -2.05496e-09 2.38437e-09 -5.91046e-10 10.2786 0.731801 0.0259123 -2.05496e-09 2.38436e-09 -5.91042e-10 2.22167 -0.733487 -0.20892 1.51032e-13 -6.04327e-14 5.07398e-14 -82.0863 20.6045 5.69189 11.6462 -5.20369 -20.9273 0.00742304 -2.45922 0.345835 -2.24321e-09 -1.82132e-09 -3.87458e-10 -3.87686e-09 -3.15216e-09 -6.69543e-10 -2.24321e-09 -1.82132e-09 -3.87442e-10 -7.73091 5.47488 -0.417314 -2.24321e-09 -1.82132e-09 -3.87458e-10 -2.90554 0.965183 -0.102902 -2.24322e-09 -1.82132e-09 -3.87456e-10 -10.2786 0.731801 -0.0259123 -2.24322e-09 -1.82132e-09 -3.87458e-10 -2.22167 -0.733487 0.20892 -2.03217e-16 0.0 -3.88251e-19 7.25408 2.54441 4.8605 -0.449167 42.3818 0.496109 -0.250994 7.82146 -0.60796 2.03217e-16 0.0 3.88251e-19 -0.204943 -29.4491 -2.57682 0.232856 31.7288 0.25738 0.132905 0.342929 -3.78007
28.0693 83.2753 52.2936 -3.7131 -1.6289 -2.6047 0.357429 10.0962 5.55977 -1.34831 -4.1656 1.3192 -1.74561 -1.28353 -3.76733 2.27628 -8.14324 -6.79653 -0.0 0.0 0.0 -0.0 0.0 0.0 1.19102e-13 -3.72728e-14 5.7964e-14 78.9029 12.8834 7.50059 -14.8256 -7.64019 27.2306 -0.0010383 -0.894477 -0.125723 -1.85304e-09 2.71273e-09 -5.52559e-10 -3.20288e-09 4.68966e-09 -9.55173e-10 -1.85304e-09 2.71273e-09 -5.52574e-10 7.73091 5.47488 0.417314 -1.85304e-09 2.71273e-09 -5.52562e-10 2.90554 0.965183 0.102902 -1.85304e-09 2.71273e-09 -5.52559e-10 10.2786 0.731801 0.0259123 -1.85304e-09 2.71273e-09 -5.52555e-10 2.22167 -0.733487 -0.20892 1.19008e-13 -3.72776e-14 5.77415e-14 -82.0461 20.3892 5.72847 11.7169 -5.2527 -21.0623 0.00633661 -2.27487 0.319883 -2.00956e-09 -1.57454e-09 -3.41926e-12 -3.47356e-09 -2.72545e-09 -5.31311e-12 -2.00956e-09 -1.57454e-09 -3.4039e-12 -7.73091 5.47488 -0.417314 -2.00956e-09 -1.57454e-09 -3.41854e-12 -2.90554 0.965183 -0.102902 -2.00956e-09 -1.57454e-09 -3.41562e-12 -10.2786 0.731801 -0.0259123 -2.00956e-09 -1.57454e-09 -3.41782e-12 -2.22167 -0.733487 0.20892 -2.03217e-16 0.0 -3.88251e-19 6.61283 1.21814 4.49222 -0.506221 44.6036 0.545241 -0.234947 10.8756 -0.07134 2.03217e-16 0.0 3.88251e-19 -0.755114 -28.9917 -2.2688 0.242786 32.3907 0.273547 0.0755023 -0.43082 -3.79408
28.3358 83.1451 53.3506 -3.2352 -1.5914 -2.7108 -0.27481 10.1232 5.52063 -1.2959 -4.19362 1.27506 -1.71586 -1.40702 -3.71369 2.2328 -7.71686 -6.70542 -0.0 0.0 0.0 -0.0 0.0 0.0 5.99424e-14 6.83592e-15 6.44963e-14 79.2058 12.5241 7.10376 -14.7171 -7.54764 27.0088 -0.000616706 -0.659988 -0.0927604 -1.41984e-09 2.98686e-09 -4.127e-10 -2.45498e-09 5.16724e-09 -7.12395e-10 -1.41983e-09 2.98687e-09 -4.12718e-10 7.73091 5.47488 0.417314 -1.41984e-09 2.98687e-09 -4.12704e-10 2.90554 0.965183 0.102902 -1.41984e-09 2.98687e-09 -4.127e-10 10.2786 0.731801 0.0259123 -1.41984e-09 2.98687e-09 -4.12696e-10 2.22167 -0.733487 -0.20892 5.9848e-14 6.83041e-15 6.43068e-14 -82.0256 20.1162 5.80615 11.8571 -5.35001 -21.332 0.00408193 -1.81606 0.255323 -1.48552e-09 -1.08232e-09 5.32748e-10 -2.5686e-09 -1.8741e-09 9.21917e-10 -1.48552e-09 -1.08232e-09 5.32761e-10 -7.73091 5.47488 -0.417314 -1.48551e-09 -1.08232e-09 5.32749e-10 -2.90554 0.965183 -0.102902 -1.48552e-09 -1.08232e-09 5.32753e-10 -10.2786 0.731801 -0.0259123 -1.48552e-09 -1.08232e-09 5.32751e-10 -2.22167 -0.733487 0.20892 -2.03217e-16 0.0 -3.88251e-19 5.86673 -0.191897 4.15952 -0.570932 46.8532 0.601955 -0.262089 13.9116 0.454513 2.03217e-16 0.0 3.88251e-19 -1.41604 -28.4251 -2.04653 0.249114 32.8697 0.297407 0.0213366 -1.22429 -3.81293
